<svg width="381" height="14" viewBox="0 0 381 14" fill="none" xmlns="http://www.w3.org/2000/svg">
<mask id="mask0_1_121" style="mask-type:alpha" maskUnits="userSpaceOnUse" x="0" y="0" width="381" height="14">
<rect x="0.491943" y="0.6828" width="380.27" height="12.254" transform="rotate(0.0550507 0.491943 0.6828)" fill="#C4C4C4"/>
</mask>
<g mask="url(#mask0_1_121)">
<path d="M57.612 -1.854L58.5416 -2.01463L56.7333 -2.24794L57.6004 -2.41662C58.4697 -2.41424 59.5958 -2.15916 60.2089 -2.29353C60.2839 -2.42413 59.3373 -2.46697 59.0958 -2.57132C58.8822 -2.67823 58.7079 -2.78442 58.5749 -2.8886C59.0483 -2.88702 59.5688 -2.86135 60.1054 -2.8131C60.8272 -2.73444 61.5352 -2.69586 62.1512 -2.70162C63.411 -2.67935 64.6281 -2.69919 65.9978 -2.69325L65.5424 -3.00816L67.3075 -2.9329C67.4946 -2.90876 67.7176 -2.94707 67.9014 -2.91726C69.431 -2.66502 70.0785 -2.80105 70.8129 -2.91365C70.9636 -2.94282 71.145 -2.96454 71.3524 -2.97823C73.3931 -2.9162 75.233 -2.56293 77.0707 -2.38071C77.4166 -2.33431 77.7483 -2.27485 78.0423 -2.20655C78.6814 -2.07372 79.3924 -1.96509 80.1102 -1.89059C80.8279 -1.8161 81.5295 -1.77812 82.1509 -1.78013C83.525 -1.78173 85.0773 -1.69278 86.6577 -1.5219C87.1277 -1.46566 87.5979 -1.42841 88.0386 -1.41252C88.4792 -1.39662 88.8805 -1.40242 89.2168 -1.42958L90.2853 -1.24903C90.7485 -1.32143 91.3359 -1.36083 92.0118 -1.36484C92.6876 -1.36885 93.4378 -1.3374 94.2169 -1.27237C95.0471 -1.20185 95.8904 -1.15404 96.7518 -1.07949C98.5311 -0.93685 100.263 -0.848997 101.893 -0.81866C104.321 -0.731069 106.693 -0.662869 109.143 -0.55422C110.675 -0.50144 112.168 -0.471785 113.613 -0.465413C115.343 -0.443681 117.215 -0.344729 119.138 -0.173332V-0.173332C119.047 -0.0143429 118.203 -0.0621491 117.638 -0.0680761C115.812 -0.0962701 113.943 -0.166579 112.065 -0.219854C111.219 -0.240756 110.396 -0.249157 109.601 -0.244993C108.272 -0.252865 106.872 -0.296597 105.423 -0.375443C103.134 -0.462868 100.919 -0.505963 98.7991 -0.504292C98.6329 -0.49815 98.4806 -0.487132 98.3448 -0.471418C98.3164 -0.457723 98.3108 -0.440424 98.3285 -0.421183C98.3462 -0.401942 98.3865 -0.381395 98.4457 -0.36152C98.5048 -0.341645 98.5808 -0.323107 98.6664 -0.307672C98.7519 -0.292237 98.8442 -0.280422 98.9344 -0.273367C99.7762 -0.164753 100.68 -0.0480974 101.474 -0.0310456C101.505 -0.0297992 101.538 -0.0269883 101.57 -0.0228138C101.602 -0.0186394 101.634 -0.0132069 101.661 -0.00690998C103.439 0.222387 104.9 0.185278 106.284 0.223636C108.583 0.325919 110.799 0.374793 112.899 0.369519C113.216 0.37032 113.559 0.383659 113.914 0.409053C116.113 0.512719 118.169 0.526053 119.986 0.448448C120.734 0.429064 121.43 0.384602 122.233 0.384619C122.728 0.381988 123.159 0.353604 123.5 0.301162C123.841 0.248721 124.085 0.173308 124.217 0.0794588C124.556 0.129262 124.901 0.173688 125.246 0.212204C125.452 0.234236 125.65 0.240226 125.8 0.228944C125.949 0.217663 126.039 0.189954 126.051 0.151421C126.113 0.0435362 125.642 -0.0111255 125.234 -0.0577432C125.48 -0.0806566 125.758 -0.0940087 126.06 -0.0974779C127.763 -0.120507 129.589 -0.0896404 131.5 -0.00555641C132.983 0.094318 134.167 0.0153242 135.727 0.155658C135.914 0.179794 136.068 0.14478 136.241 0.136503C136.69 0.092474 137.249 0.0830185 137.87 0.108963C138.491 0.134907 139.156 0.195469 139.805 0.285396C140.615 0.0421958 142.363 0.322599 143.654 0.348888C144.051 0.473345 143.595 0.451094 143.576 0.485163C143.556 0.519232 143.575 0.485156 143.42 0.465042C142.13 0.639515 140.365 0.676133 138.37 0.569749C138.001 0.569827 137.649 0.577495 137.318 0.592676C136.817 0.614131 136.252 0.611398 135.648 0.584596C134.988 0.564703 134.382 0.573268 133.859 0.609874C133.558 0.608981 133.303 0.627326 133.119 0.663222C132.934 0.699119 132.826 0.751403 132.803 0.815214C133.004 0.864616 133.227 0.909857 133.463 0.949141C134.695 1.10454 135.924 1.16955 136.908 1.13139C138.62 1.06566 140.658 1.13337 142.479 1.11211C143.709 1.10398 145.019 1.13178 146.383 1.195C146.383 1.195 146.347 1.25746 146.344 1.26314C146.505 1.29035 146.674 1.31222 146.842 1.3275C146.842 1.3275 146.842 1.3275 146.859 1.29911C146.784 1.27176 146.683 1.246 146.566 1.22482L146.161 1.17252C146.437 1.15927 146.694 1.1193 146.981 1.14415C147.586 1.19039 148.164 1.21021 148.681 1.20246C149.198 1.1947 149.642 1.15952 149.988 1.09902C150.6 1.02165 151.362 0.986924 152.223 0.997096C152.883 0.989219 153.52 0.971536 154.129 0.944138C154.129 0.944138 154.168 0.876006 154.457 0.84005C154.183 0.795098 153.899 0.758332 153.615 0.73144C152.381 0.663747 151.144 0.601732 149.932 0.555097C149.485 0.549756 149.065 0.556972 148.68 0.576602C147.614 0.598982 146.415 0.564613 145.155 0.475498C145.155 0.475498 144.906 0.443318 144.781 0.427227C145.135 0.277708 146.354 0.428906 146.847 0.327891C147.148 0.330027 147.676 0.343297 147.658 0.316562C147.617 0.280869 147.612 0.247742 147.643 0.219559C147.675 0.191375 147.743 0.168831 147.841 0.153546C147.939 0.138261 148.066 0.130608 148.213 0.131144C148.359 0.131679 148.521 0.140392 148.687 0.156646C150.075 0.245048 151.382 0.270517 152.529 0.231493C152.964 0.232685 153.451 0.258959 153.882 0.26583C154.147 0.27386 154.388 0.269766 154.593 0.253777C155.635 0.135565 157.038 0.128207 158.59 0.232806C159.34 0.270597 160.041 0.276228 160.657 0.249411C161.095 0.244925 161.28 0.329861 161.592 0.370089L162.916 0.455529L161.215 0.55936C161.579 0.801403 161.868 0.881375 162.461 0.897003C163.328 0.920575 164.171 0.931658 164.988 0.930185C165.591 0.928779 166.09 0.877207 166.907 0.970442C167.051 0.98566 167.19 0.990674 167.301 0.984643C168.258 0.903488 169.41 0.885758 170.679 0.932666C171.337 0.779604 172.456 0.93011 173.491 1.0515C173.826 0.936054 173.22 0.882329 172.859 0.811343C173.725 0.819406 174.598 0.816115 175.492 0.833879C175.761 0.827983 176.068 0.838806 176.39 0.865495C176.711 0.892184 177.039 0.934009 177.346 0.9877C177.495 1.02234 177.676 1.04848 177.85 1.06069C178.024 1.0729 178.177 1.07024 178.279 1.05326C178.743 1.00335 179.486 1.05044 179.87 0.965751C180.006 0.94632 180.201 0.943776 180.42 0.958564C180.638 0.973352 180.866 1.00451 181.063 1.04647V1.04647C180.848 1.05929 180.656 1.07962 180.492 1.10702C179.905 1.19597 180.121 1.34574 180.866 1.56389C182.011 1.55303 183.18 1.55755 184.242 1.51759C184.833 1.48137 185.558 1.49357 186.334 1.55281C187.111 1.61205 187.908 1.71599 188.637 1.85294C188.901 1.90558 189.201 1.94216 189.479 1.9554C189.757 1.96865 189.992 1.95759 190.136 1.92442C190.227 1.88598 190.255 1.83725 190.218 1.78246L189.47 1.68592C189.47 1.68592 189.499 1.63482 189.506 1.62346L190.582 1.6159C191.151 1.61615 191.745 1.63178 192.283 1.62801C193.073 1.60023 193.975 1.61701 194.933 1.67729C195.817 1.739 196.686 1.78584 197.532 1.8174C198.351 1.84983 198.944 1.74952 199.723 1.73416C200.312 1.72258 200.96 1.73618 201.643 1.77443C202.821 1.84223 203.902 1.8434 204.789 1.77781C205.822 2.13675 206.324 2.19543 207.283 2.09963L207.734 2.07243L207.857 2.14932L208.202 2.13277C208.846 2.11835 209.491 2.10394 210.163 2.09922C211.098 2.13334 212.108 2.22368 213.094 2.36142C213.281 2.38556 213.535 2.4672 213.699 2.53108C213.864 2.59497 214.222 2.78756 214.485 2.91296C214.198 3.00404 213.88 3.09109 213.652 3.1959C213.63 3.21382 213.632 3.23522 213.659 3.25837C213.686 3.28153 213.737 3.3058 213.808 3.32922C213.88 3.35265 213.969 3.37458 214.069 3.39326C214.169 3.41194 214.277 3.42684 214.385 3.43677C214.594 3.45815 214.801 3.47247 214.997 3.47914C215.96 3.49123 216.883 3.48382 217.756 3.45696C218.074 3.41819 218.511 3.4149 218.995 3.44761C219.48 3.48032 219.986 3.54716 220.431 3.63753C221.573 3.58463 222.9 3.60186 224.321 3.68802C225.823 3.63789 227.638 3.74392 229.041 3.63228C229.009 3.68906 229.153 3.78702 229.355 3.84357C229.675 3.92947 230.036 4.00915 230.426 4.07923L233.393 4.21818C233.504 4.28826 233.643 4.35924 233.807 4.43017C233.92 4.48619 234.116 4.54109 234.355 4.58323C234.593 4.62537 234.855 4.65144 235.084 4.65592C235.675 4.67722 236.17 4.63133 236.874 4.74657C235.79 4.85381 234.327 4.83802 232.747 4.702C231.262 4.59828 229.835 4.54578 228.516 4.54646C228.081 4.54527 227.509 4.5507 227.373 4.61244C227.072 4.78704 226.284 4.75864 225.366 4.7255C224.644 4.68949 223.985 4.69282 223.442 4.73521C222.9 4.77761 222.489 4.85785 222.245 4.96935C222.183 5.07724 222.331 5.16951 222.964 5.23294L225.598 5.48734C225.986 5.45533 226.354 5.41735 226.701 5.37356C227.286 5.31552 228.008 5.30012 228.81 5.32858C229.613 5.35703 230.475 5.42857 231.329 5.53762C231.766 5.59394 232.202 5.65025 232.519 5.624C232.796 5.59376 233.052 5.55747 233.284 5.51542C233.331 5.48713 233.35 5.45453 233.34 5.41889C233.508 5.43562 233.676 5.45732 233.839 5.48325C235.139 5.78517 236.146 5.78094 237.061 5.70383C237.308 5.68088 237.497 5.64422 237.748 5.61559C237.999 5.58697 238.087 5.54959 238.315 5.56072C240.133 5.66107 240.657 5.33222 242.189 5.34692C242.264 5.33413 242.31 5.31493 242.324 5.29112C242.337 5.2673 242.318 5.23963 242.267 5.21064C242.159 5.18441 242.034 5.16182 241.903 5.14495C241.772 5.12808 241.64 5.11747 241.519 5.1141C240.814 5.07116 240.191 5.08351 239.757 5.14907C239.45 5.17573 239.125 5.1969 238.783 5.21246L237.25 4.73403C238.736 4.77918 240.141 4.78024 241.434 4.73719C241.716 4.7126 242.193 4.7559 242.59 4.76443L245.51 4.81181C246.111 4.81609 246.622 4.74181 247.459 4.91691C247.459 4.91691 248.012 4.94554 248.16 4.92189C248.307 4.89823 248.961 4.75085 249.351 4.6548C249.804 4.68273 250.431 4.75751 250.713 4.73291C251.206 4.67229 251.632 4.59439 251.985 4.5006L253.749 4.63667C253.747 4.75604 253.682 4.86828 253.556 4.97169C253.419 5.07139 253.423 5.19124 253.57 5.32143C253.716 5.45162 254 5.58846 254.399 5.72076L256.14 6.42112C256.424 6.46818 256.727 6.49996 257.007 6.51216C257.288 6.52436 257.533 6.51637 257.708 6.48929C258.457 6.4091 259.297 6.34665 260.046 6.26647C261.013 6.39117 260.764 6.59085 261.467 6.7669L263.743 7.06055C264.09 7.33098 264.443 7.59006 263.387 7.67947C263.177 7.69508 263.319 7.79872 263.127 7.84106C263.948 8.04455 264.85 8.10609 265.682 8.23174C266.01 8.32184 266.284 8.41715 266.492 8.51306C266.719 8.65739 267.181 8.80504 267.777 8.92413C268.372 9.04322 269.055 9.12419 269.676 9.14956C270.718 9.22644 271.785 9.34143 272.83 9.48938C273.186 9.54082 273.553 9.5784 273.905 9.59959C274.256 9.62078 274.585 9.62508 274.869 9.61222C275.879 9.59005 276.735 9.51131 277.379 9.38112C278.017 9.27072 278.876 9.21804 279.879 9.22786C281.594 9.44911 281.939 9.78035 282.977 10.0728L281.184 10.1038C281.119 10.2173 281.237 10.3607 280.502 10.3574C279.768 10.354 280.14 10.4631 280.378 10.5731C280.462 10.6284 280.626 10.6854 280.842 10.7344C281.058 10.7834 281.313 10.8214 281.564 10.8419L283.09 10.9839C283.631 11.0379 284.154 11.0613 284.603 11.0514C285.052 11.0415 285.408 10.9988 285.633 10.9279C285.892 10.8607 286.248 10.8153 286.681 10.7947C287.233 10.7402 287.687 10.6587 288.025 10.5534L290.18 10.7094C290.271 10.6033 290.568 10.5292 291.018 10.4995C291.468 10.4698 292.045 10.4864 292.651 10.5464L294.103 10.6423C295.717 10.7469 296.072 10.7133 296.545 10.4145L294.609 9.8781C294.891 9.73757 295.163 9.61407 295.434 9.49058C294.952 9.31401 294.309 9.14682 293.57 9.006C292.88 8.85478 292.17 8.70829 291.444 8.56708C290.656 8.42274 289.824 8.29709 288.846 8.13429C288.675 8.08176 288.427 7.98877 288.11 7.89909C287.793 7.81194 287.462 7.72649 287.119 7.64308C287.184 7.52952 287.243 7.42731 287.118 7.29529C287.72 7.33796 288.342 7.41216 288.929 7.51122C289.515 7.61028 290.046 7.73108 290.476 7.86271C290.548 7.88606 290.636 7.908 290.735 7.92706C290.834 7.94613 290.941 7.96187 291.048 7.97322C292.107 8.05486 292.612 8.2238 293.13 8.43083C293.478 8.53674 293.927 8.63093 294.415 8.70033C295.35 8.82101 296.266 8.97577 297.16 9.10947C297.434 9.15399 297.719 9.1907 298.002 9.21808C298.937 9.30515 299.878 9.42655 300.777 9.57611C301.071 9.61418 301.352 9.66446 301.598 9.72275C301.844 9.78104 302.048 9.84563 302.192 9.91115C301.969 9.98256 301.849 10.0729 301.839 10.1766C301.8 10.2447 302.456 10.3843 302.766 10.4854C303.077 10.5864 302.468 10.5384 302.261 10.5483C301.413 10.567 301.256 10.6077 301.764 10.8317C301.933 10.9022 302.046 10.9726 302.094 11.0387C302.143 11.1048 302.126 11.165 302.045 11.2157C301.925 11.4258 301.558 11.5981 301.306 11.8034C301.697 11.9392 302.35 12.0845 302.421 12.2522C302.455 12.2895 302.528 12.329 302.633 12.3678C302.738 12.4067 302.873 12.444 303.029 12.477C303.439 12.5484 303.812 12.6336 304.119 12.7261C304.426 12.8186 304.659 12.9158 304.799 13.0104C304.845 13.0494 304.955 13.0909 305.109 13.1266C305.262 13.1622 305.447 13.1893 305.626 13.2025C305.84 13.2186 306.032 13.2167 306.161 13.1971C306.291 13.1775 306.349 13.1418 306.323 13.0972C306.328 13.0136 306.3 12.9263 306.238 12.8362C306.274 12.7738 306.31 12.7113 306.169 12.6077C306.808 12.6461 307.479 12.7224 308.109 12.8284C308.739 12.9344 309.303 13.066 309.742 13.209C310.226 13.3568 310.673 13.5121 311.21 13.685C311.099 13.8781 311.099 13.8781 312.241 14.2207L318.304 14.3931L319.547 14.6204C320.706 14.8187 320.981 14.8055 321.709 14.7043L322.199 14.6089C323.228 14.7417 324.413 14.8945 325.057 14.6482C325.265 14.8094 325.402 14.8636 325.354 14.8879C325.047 15.1251 324.513 15.3261 323.773 15.4829C323.585 15.5196 323.452 15.5757 323.232 15.6083C322.524 15.7931 322.359 16.0795 322.772 16.4089C322.977 16.5547 323.275 16.7041 323.656 16.8523C323.098 17.0569 322.359 17.2261 321.458 17.3555C320.694 17.4555 320.065 17.5898 319.588 17.7546C319.16 17.9208 318.52 18.0454 317.703 18.1213C317.289 18.1535 316.986 18.2175 316.826 18.307C316.778 18.5496 316.887 18.8095 317.152 19.0809C317.201 19.1634 317.343 19.2527 317.565 19.3417C317.787 19.4306 318.083 19.5169 318.431 19.5936C318.431 19.5936 318.599 19.6518 318.679 19.6866C318.746 19.9805 318.494 20.2392 317.942 20.4453C317.851 20.5039 317.666 20.5461 317.406 20.5673C317.146 20.5886 316.821 20.5881 316.466 20.566C315.716 20.5302 315.016 20.5252 314.291 20.5049C313.509 20.4763 312.821 20.4976 312.298 20.5664C311.775 20.6353 311.437 20.7492 311.32 20.8961C311.312 20.9378 311.289 20.9776 311.251 21.0154C311.229 21.0349 311.217 21.0558 311.215 21.0778L312.88 21.561L310.996 21.7509C310.885 21.944 311.789 22.0607 312.243 22.2045L311.962 22.2842C311.602 22.3292 311.116 22.2421 310.676 22.1915L310.239 22.1352L310.187 22.226C309.915 22.3495 308.924 22.2094 308.537 22.2998C308.151 22.3902 308.427 22.4929 309.006 22.592C309.409 22.6657 309.841 22.7245 310.271 22.7641C310.7 22.8037 311.116 22.823 311.487 22.8206C311.708 22.8111 311.891 22.7891 312.026 22.756C312.808 22.6152 313.672 22.4943 314.612 22.3943C315.332 22.3044 316.234 22.2667 317.254 22.2839C317.553 22.2773 317.914 22.2992 318.273 22.3455C318.633 22.3919 318.967 22.4598 319.218 22.5373V22.5373L319.746 22.5506C319.746 22.5506 320.035 22.6306 319.994 22.6436C319.793 22.8795 320.026 23.1684 320.66 23.4674V23.4674L320.109 23.4939C319.321 23.4655 319.82 23.6458 319.703 23.7343C319.143 23.717 318.416 23.6415 318.151 23.7536L317.754 23.7451L317.91 23.7652L318.098 23.7286L318.839 23.8973C318.488 23.9252 318.234 23.9595 317.924 23.9744C317.752 23.9874 317.616 24.0106 317.523 24.0426C317.43 24.0746 317.382 24.1147 317.381 24.1606C317.382 24.231 317.29 24.2903 317.113 24.3326C316.936 24.3749 316.681 24.3989 316.372 24.4023C316.003 24.4035 315.791 24.4799 315.575 24.5069L316.515 24.9697C316.515 24.9697 316.047 24.9093 316.301 24.991L316.334 24.9342L316.904 25.0504C317.314 25.1521 317.601 25.177 317.844 25.1046C318.086 25.0322 318.031 25.1287 318.147 25.101C318.105 25.1749 317.841 25.2262 317.615 25.2702C317.353 25.3047 317.058 25.3299 316.734 25.3456C317.317 25.671 317.345 25.6807 316.493 25.7658C315.64 25.851 315.934 25.9804 315.22 25.9981C314.507 26.0159 315.318 26.2364 315.795 26.2797C316.149 26.3082 316.51 26.3524 316.853 26.4093C317.196 26.4662 317.514 26.5345 317.783 26.6093L317.639 26.8591C317.429 26.8383 317.219 26.8111 317.016 26.7787C316.325 26.6407 315.696 26.5108 315.081 26.5901L315.374 26.7803L313.228 26.6681C313.283 26.8105 313.61 26.973 314.14 27.1212V27.1212C314.06 27.2023 314.011 27.2877 313.993 27.3767C313.957 27.4392 313.745 27.3997 313.608 27.4063C313.116 27.4163 312.713 27.4582 312.433 27.5285C312.153 27.5987 312.006 27.6951 312.003 27.8092C311.948 27.9057 312.703 28.1068 313.175 28.1007C314.355 28.1211 315.63 28.1966 316.932 28.3232C317.726 28.3402 317.839 28.0864 319.145 28.261C319.171 28.3783 319.003 28.4731 318.668 28.531C318.332 28.589 317.847 28.607 317.286 28.5822C317.605 28.843 319.373 28.9126 319.451 29.1849C319.011 29.1653 318.54 29.1196 318.085 29.0523C317.63 28.9851 317.208 28.8987 316.858 28.8016C316.783 28.7777 316.688 28.7556 316.583 28.7374C316.478 28.7192 316.366 28.7055 316.257 28.6975C316.148 28.6895 316.046 28.6876 315.96 28.6918C315.874 28.696 315.807 28.7062 315.766 28.7216C316.01 28.8202 316.28 28.9343 316.587 29.041C316.894 29.1477 316.968 29.1938 317.189 29.2163C318.842 29.4295 319.627 29.8114 321.057 30.0629C321.431 30.1112 321.477 30.2636 321.152 30.2461C320.843 30.2285 320.564 30.2305 320.344 30.2518C320.125 30.273 319.975 30.3127 319.911 30.3665C319.671 30.4289 319.372 30.4786 319.022 30.5141C320.488 30.9066 322.236 31.2539 324.102 31.5232C324.456 31.5765 324.824 31.6091 325.154 31.6163C326.196 31.6176 327.301 31.6497 328.448 31.7119C328.855 31.729 329.231 31.7278 329.555 31.7084C330.62 31.6627 331.465 31.7657 332.237 32.0543L333.514 32.5119C333.472 32.5858 333.257 32.6679 333.092 32.7807L334.09 33.0254L341.709 32.4714L343.238 33.0163L345.431 32.9882C345.599 33.0041 345.768 33.0259 345.93 33.0526C346.373 33.2135 346.72 33.368 347.201 33.5215C347.682 33.6751 348.541 33.6945 349.141 33.8755C349.74 34.0565 350.34 34.0608 351.082 34.1687C351.152 34.3084 351.08 34.4341 350.87 34.5378C350.802 34.657 350.425 34.7304 350.359 34.8439C350.366 34.9588 350.226 35.0561 349.951 35.1272C349.677 35.1983 349.276 35.2407 348.786 35.2508C347.413 35.494 345.758 35.6665 343.87 35.7632C343.704 35.7702 343.567 35.7866 343.466 35.8114C343.365 35.8361 343.304 35.8688 343.285 35.9073C343.287 36.0187 343.161 36.1149 342.916 36.1888C342.671 36.2627 342.313 36.3124 341.867 36.3343C341.749 36.3386 341.659 36.3526 341.61 36.3743C341.441 36.3881 341.318 36.4149 341.253 36.4519C341.188 36.4889 341.182 36.535 341.237 36.5857C341.292 36.6363 341.406 36.6898 341.567 36.741C341.729 36.7922 341.932 36.8394 342.158 36.878C342.486 36.9401 342.82 36.9996 343.161 37.0562C343.141 37.0902 342.803 37.0954 342.853 37.1262C342.986 37.2243 343.017 37.3162 342.943 37.3945C342.869 37.4728 342.692 37.5354 342.426 37.5774L344.246 38.3733C345.351 38.4844 346.435 38.672 347.292 38.9005C347.293 38.9378 347.244 38.969 347.149 38.991C347.054 39.013 346.917 39.025 346.751 39.0259C346.307 39.0417 345.887 39.0729 345.408 39.0904C345.115 39.1036 344.872 39.1329 344.691 39.1766C344.511 39.2203 344.397 39.2777 344.357 39.3452L345.426 39.6417C345.084 39.7134 344.829 39.7477 344.603 39.7917C344.731 39.8847 344.952 39.9809 345.247 40.073C345.543 40.165 345.905 40.2505 346.308 40.3226C346.415 40.3375 346.525 40.3485 346.631 40.3548C346.737 40.3611 346.836 40.3626 346.923 40.3593C347.751 40.2588 348.719 40.4386 349.66 40.6087C350.6 40.7789 351.11 40.8813 351.805 41.0136L353.133 41.0326C353.47 41.0952 353.77 41.1687 354.009 41.2473C354.249 41.3259 354.422 41.4074 354.514 41.4852C354.443 41.6101 353.812 41.541 353.437 41.5535C352.546 41.6305 351.374 41.6128 350.117 41.5033C349.805 41.4631 349.485 41.495 349.182 41.4986C348.527 41.5135 347.898 41.5382 347.297 41.5726C346.902 41.6047 346.532 41.6446 346.191 41.692C346.099 41.851 347.535 41.9753 346.72 42.0531C347.001 42.0893 347.106 42.1395 347.25 42.1215C348.174 42.2257 349.085 42.2776 349.876 42.2713C351.396 42.2508 353.12 42.325 354.91 42.4877C356.841 42.6563 358.694 42.7281 360.315 42.6972C360.933 42.6958 361.623 42.7307 362.333 42.7989C363.172 42.8934 364.005 42.953 364.778 42.9741C365.033 42.975 365.319 42.9912 365.61 43.0214C365.901 43.0515 366.19 43.0947 366.453 43.1475V43.1475C366.43 43.1873 366.179 43.2159 366.235 43.2353C367.035 43.5337 367.359 43.8438 368.59 44.1491C369.432 44.2577 370.398 44.3824 370.949 44.24C371.5 44.0976 371.303 43.9745 370.207 43.6075C370.445 43.6025 370.731 43.6199 371.016 43.6566C371.301 43.6934 371.567 43.7472 371.766 43.8087L372.714 44.0834L373.567 44.346C373.492 44.4766 373.434 44.5788 373.372 44.6867C373.274 44.8013 373.381 44.9409 373.678 45.0861C373.857 45.1654 374.013 45.2446 374.145 45.3232C374.678 45.6373 374.833 45.9339 374.59 46.1796C374.126 46.5329 373.48 46.8577 372.659 47.1503C371.793 47.435 371.318 47.7946 370.604 48.105C370.24 48.2463 369.797 48.3728 369.282 48.4832C368.303 48.729 367.231 48.9628 366.249 49.2142C365.268 49.4657 364.159 49.646 363.069 49.853C361.446 50.0983 359.692 50.3099 357.816 50.4865C356.655 50.6416 355.463 50.7928 354.389 50.9714C353.121 51.1727 351.631 51.3167 349.957 51.3998C348.478 51.4998 347.157 51.6485 346.018 51.8431C345.899 51.8641 345.805 51.891 345.738 51.9228C345.533 52.1222 344.958 52.2622 344.102 52.3217C344.154 52.3801 344.221 52.4396 344.301 52.4998C344.42 52.5716 344.445 52.6387 344.372 52.6924C344.3 52.7461 344.133 52.7839 343.894 52.801C343.209 52.8498 342.64 52.9332 342.212 53.0475C342.055 53.0761 341.957 53.1179 341.927 53.1694C341.898 53.2208 341.937 53.2803 342.042 53.3428C342.135 53.407 342.142 53.4661 342.062 53.5123C341.981 53.5584 341.818 53.5896 341.592 53.6018C341.012 53.662 340.392 53.7103 339.734 53.7463C338.335 53.8259 336.707 53.8234 334.949 53.7389C334.762 53.7148 334.574 53.7514 334.355 53.7233C333.113 53.6293 331.958 53.6138 331.032 53.6787C329.946 53.7033 328.811 53.6971 327.666 53.708C326.012 53.6984 324.486 53.7457 323.131 53.8487C321.583 53.7464 320.712 53.9208 319.405 53.9229C318.198 53.9397 317.054 53.9818 315.984 54.0487C314.258 54.1371 312.54 54.2142 310.839 54.318C309.244 54.3668 307.775 54.4614 306.457 54.6004C305.952 54.6633 305.038 54.5637 304.694 54.6962C304.35 54.8287 303.656 54.8123 303.095 54.8559L301.326 54.963C301.021 54.9886 300.687 55.0047 300.327 55.011C298.682 55.0183 297.542 55.1946 296.015 55.2293L295.859 55.2092C293.148 55.4702 290.045 55.6119 286.642 55.6301C284.655 55.7091 282.481 55.7031 280.372 55.7603C279.869 55.8784 278.681 55.7312 278.05 55.8389C277.418 55.9465 276.388 55.8745 275.575 55.8916C274.761 55.9086 273.966 55.9523 273.096 55.9499C272.341 55.9497 271.704 55.9975 271.242 56.0888C270.187 56.2395 268.901 56.3274 267.442 56.3487C265.511 56.3863 263.686 56.474 261.723 56.4525C261.751 56.5631 261.63 56.657 261.373 56.7247C261.117 56.7923 260.733 56.8312 260.262 56.8374C258.163 56.8775 256.259 56.9856 254.131 57.0161L253.562 57.0159L247.2 57.0732C245.486 57.0838 243.834 57.1025 242.086 57.1147C241.431 57.0303 241.415 57.1746 240.962 57.1466C240.835 57.0754 240.686 57.044 240.463 57.0823L240.414 57.1675L233.153 57.2735C230.31 57.3535 227.32 57.3754 224.207 57.3391C223.469 57.3468 222.779 57.3743 222.15 57.4214C221.567 57.4382 220.959 57.4453 220.33 57.4427C219.479 57.4204 218.647 57.4087 217.838 57.4078C215.711 57.4383 213.478 57.4186 211.149 57.3925C208.82 57.3665 207.055 57.4071 204.982 57.4019C203.577 57.3976 202.18 57.3819 200.726 57.3469C200.033 57.3306 199.178 57.2446 198.459 57.2129C197.741 57.1812 197.506 57.1814 197.411 57.2302C197.098 57.3667 196.312 57.2775 195.684 57.2635C194.459 57.2396 194.285 57.1927 193.952 56.8388L195.456 56.7278C195.824 56.6919 196.288 56.686 196.802 56.7106C197.315 56.7352 197.862 56.7896 198.389 56.8684C198.597 56.9022 198.813 56.929 199.027 56.9471C199.241 56.9653 199.447 56.9745 199.634 56.9742C201.152 56.9565 202.647 56.9177 204.106 56.8863L204.319 56.865L204.332 56.5496C204.14 56.5185 203.94 56.4927 203.74 56.4732L196.427 56.2615C194.749 56.2097 193.006 56.0947 191.359 56.0468C189.712 55.999 188.825 55.9699 187.547 55.9209C187.008 55.8931 186.458 55.8569 185.902 55.8123C185.934 55.7819 185.952 55.7496 185.957 55.7157C185.986 55.6646 186.025 55.5965 185.789 55.5416C185.531 55.4642 185.187 55.3979 184.824 55.3561C184.483 55.3283 184.153 55.3125 183.846 55.3092C182.363 55.2814 180.669 55.1131 179.126 54.8404L178.587 55.0209C176.269 54.917 173.916 54.8148 171.495 54.7158C171.01 54.689 170.501 54.6379 170.006 54.5665C169.476 54.4981 168.989 54.3559 168.431 54.2778C167.879 54.2215 167.332 54.1774 166.798 54.1465C166.943 54.1 167.133 54.063 167.364 54.0365C167.591 54.0273 167.756 53.9984 167.836 53.9538C167.915 53.9093 167.906 53.8515 167.808 53.7888C167.635 53.6811 167.559 53.5798 167.935 53.5673C168.282 53.5431 168.53 53.4903 168.65 53.4151C168.771 53.3398 168.758 53.2453 168.614 53.1426C168.551 53.0826 168.506 53.0239 168.481 52.9669V52.9669L168.325 52.9467C167.811 52.734 166.784 52.6564 166.047 52.482C165.699 52.4313 165.339 52.402 165.023 52.3987C164.207 52.3606 163.413 52.3436 162.57 52.2957C162.167 52.2737 161.746 52.2339 161.331 52.1786C160.739 52.1022 160.677 52.0941 160.333 51.818C160.867 51.8233 161.291 51.7825 161.532 51.7025C161.773 51.6225 161.817 51.5082 161.657 51.3789C161.216 51.0964 160.751 50.7985 158.758 50.5962C159.408 50.587 160.034 50.5679 160.632 50.5392C160.806 50.5331 160.937 50.5125 161.006 50.4802C161.075 50.4479 161.08 50.4054 161.02 50.3585C160.959 50.3116 160.836 50.2624 160.668 50.2176C160.499 50.1727 160.293 50.1344 160.076 50.1077C159.024 49.9471 157.926 49.8392 156.906 49.7962C156.047 49.7768 155.271 49.7865 154.267 49.7851L153.082 49.6322C153.102 49.5981 152.928 49.5513 152.972 49.5326C153.273 49.358 153.606 49.1874 153.948 48.9998C153.402 48.8978 152.929 48.7748 152.583 48.645C152.237 48.5151 152.032 48.3837 151.992 48.2656C151.963 48.23 151.97 48.1976 152.015 48.1706C152.059 48.1437 152.139 48.1229 152.249 48.1097C152.561 48.0872 152.802 48.0438 152.953 47.9829C153.104 47.9221 153.161 47.8453 153.121 47.7586L152.199 47.4385C149.425 47.208 146.701 47.0427 144.077 46.9455L141.708 46.8716C141.422 46.786 141.511 46.7486 141.78 46.7467C142.049 46.7448 142.805 46.7692 143.333 46.7825C143.789 46.7997 144.194 46.789 144.509 46.7517C144.824 46.7143 145.038 46.6514 145.13 46.5691L144.335 46.2043C144.374 46.1361 144.43 46.0396 144.861 46.0464C145.156 46.0388 145.373 46.0047 145.478 45.9496C145.582 45.8945 145.568 45.8216 145.438 45.7427C145.418 45.6857 145.448 45.6338 145.526 45.5894C146.164 45.5863 146.798 45.5889 147.377 45.5721C147.647 45.5666 147.875 45.5457 148.045 45.5109C148.215 45.476 148.324 45.428 148.364 45.3701C148.385 45.3136 148.334 45.2491 148.216 45.1819C148.097 45.1147 147.915 45.0467 147.682 44.9833C146.775 44.9042 145.945 44.9024 145.374 44.9782C145.171 45.0379 144.844 45.0703 144.437 45.0711C144.03 45.072 143.562 45.0412 143.094 44.9829C142.559 44.9157 142.025 44.8859 141.588 44.8988C141.15 44.9118 140.839 44.9666 140.71 45.0534C140.16 45.0191 139.673 44.9928 139.192 44.9552C138.625 44.9077 138.089 44.8934 137.642 44.9137C136.927 44.9277 136.156 44.9184 135.347 44.886C133.016 44.8048 130.682 44.7293 128.424 44.6942C127.827 44.6843 127.311 44.7091 126.72 44.6878C126.13 44.6665 125.662 44.7221 124.924 44.6085C124.783 44.5908 124.642 44.5794 124.51 44.5752C124.379 44.5709 124.262 44.574 124.167 44.5841C122.87 44.6721 121.35 44.6833 119.695 44.6169C117.428 44.5989 115.077 44.5517 112.807 44.5394C112.141 44.5475 111.512 44.5703 110.926 44.6077C110.48 44.6302 110.012 44.6453 109.527 44.6529C109.154 44.6597 108.798 44.6382 108.861 44.7621C108.924 44.8861 108.366 44.808 108.044 44.7848C106.939 44.7237 105.81 44.6413 104.669 44.5385C103.545 44.4269 102.444 44.3615 101.431 44.3463C100.699 44.3373 99.9447 44.368 99.0043 44.1979C99.0402 44.1354 99.076 44.073 99.2808 44.0079C98.514 43.8276 97.6389 43.6723 96.7281 43.5548C95.8172 43.4373 94.8968 43.3609 94.0429 43.3321L92.8657 42.9911C92.5758 42.951 92.2798 42.9216 91.9958 42.9049C91.7118 42.8882 91.4457 42.8844 91.2136 42.8939C91.0342 42.8986 90.8157 42.8858 90.598 42.8577C90.3804 42.8296 90.1783 42.7882 90.0288 42.741C89.8052 42.6809 89.5322 42.6291 89.2438 42.5919C88.9554 42.5547 88.6645 42.5338 88.4075 42.5318C87.5985 42.4941 86.7349 42.4079 85.9053 42.2822C85.69 42.2087 85.5551 42.1329 85.5173 42.064C85.4795 41.9952 85.5404 41.9364 85.6925 41.8949C85.9377 41.8215 86.0754 41.7278 86.0973 41.6195C86.1192 41.5112 86.0249 41.3905 85.82 41.2648C85.7151 41.1877 85.6801 41.1147 85.7171 41.0503C85.7541 40.9859 85.8624 40.9314 86.0353 40.8901C86.681 40.6989 86.5084 40.5912 85.4527 40.2721C85.2812 40.2188 85.0744 40.1691 84.8456 40.1259C84.6167 40.0827 84.3707 40.0471 84.1232 40.0212C83.5425 39.9688 82.9697 39.9297 82.4153 39.9046C82.1035 39.8643 81.7837 39.8963 81.4244 39.8804C79.6281 39.8011 79.3652 39.6757 78.7837 39.4055L78.3599 39.2105C77.5736 39.0522 76.7138 38.9205 75.8421 38.8249C74.9705 38.7293 74.1088 38.6722 73.3192 38.6578C73.0053 38.6564 72.6445 38.6291 72.2921 38.5801C71.1451 38.4301 69.9835 38.326 68.8842 38.2746C68.1992 38.2456 67.4608 38.1716 66.7578 38.0614C66.0547 37.9512 65.4169 37.8096 64.9209 37.6535C64.4754 37.5128 63.8924 37.3865 63.2532 37.2919C62.5049 37.1954 62.4357 37.0828 62.8537 36.9964C63.2717 36.9101 63.9717 36.7991 64.5931 36.7085C64.8093 36.6777 64.9433 36.6275 64.9802 36.5633C65.0171 36.4991 64.9553 36.4236 64.8019 36.3451C64.7035 36.211 64.6865 36.0838 64.7514 35.9666C64.7861 35.9179 64.7623 35.862 64.6815 35.8026C64.6007 35.7433 64.4648 35.6819 64.2831 35.6226C64.1013 35.5633 63.8779 35.5075 63.6279 35.4589C63.3778 35.4103 63.1069 35.3701 62.8336 35.341C61.68 35.1921 60.5575 35.0473 59.3811 34.9382C58.8881 34.8868 58.3956 34.8233 57.9157 34.7491C56.9334 34.5659 55.8825 34.4137 54.8239 34.3014C54.3216 34.2512 53.8304 34.1637 53.4569 34.058C52.2785 33.7728 51.1927 33.4732 50.2192 33.1645C49.9846 33.0688 49.6776 32.9754 49.3175 32.8901C48.9573 32.8048 48.5518 32.7294 48.1263 32.6688C47.7833 32.6245 47.5042 32.5275 47.2399 32.4629C47.048 32.3138 47.0275 32.1759 47.1807 32.0623C47.3338 31.9487 47.6554 31.8631 48.1154 31.8135C48.5515 31.7539 48.9596 31.6846 49.3367 31.6112C49.7911 31.5521 50.3314 31.5168 50.9373 31.5067C51.655 31.4754 52.1857 31.3845 52.4603 31.2458C50.4961 30.9924 48.6283 30.6294 46.9062 30.7121L45.5981 30.4824C45.6503 30.3915 45.696 30.312 45.7384 30.2382C46.0497 30.1041 46.147 29.9346 46.0222 29.7442C45.9192 29.6521 45.9286 29.5683 46.0494 29.5014C46.1701 29.4345 46.398 29.3869 46.7099 29.3633C48.5577 29.1199 50.6945 28.9565 52.4274 28.6799C52.9707 28.6282 53.6066 28.6051 54.3085 28.6116C54.9876 28.5955 54.9593 28.4699 54.178 28.3142C53.7395 28.2328 53.2925 28.1548 52.8388 28.0804C50.8376 28.0662 50.022 28.4367 47.7383 28.3311L46.6803 27.8408C46.3941 27.833 46.1163 27.8297 45.8487 27.8311L42.0193 28.0262C41.7003 28.0359 41.452 28.0696 41.3026 28.1237C41.1531 28.1777 41.1085 28.2498 41.1738 28.3319C41.1997 28.4322 41.1469 28.5242 41.0173 28.6044C40.9337 28.6606 40.9871 28.7355 41.1656 28.8126C41.568 28.9865 41.0514 29.0114 40.7252 29.0547C40.6418 29.0589 40.5456 29.0583 40.4423 29.0531C40.3389 29.0478 40.2305 29.038 40.1232 29.0242C40.0158 29.0103 39.9118 28.9927 39.8172 28.9724C39.7225 28.9521 39.639 28.9295 39.5716 28.9058C38.9969 28.7402 38.4944 28.5656 37.9296 28.3829C38.3309 28.209 37.8592 27.9225 38.4852 27.7654C38.5553 27.734 38.5833 27.6956 38.5677 27.6527C38.552 27.6098 38.493 27.5632 38.3942 27.5158C38.1394 27.3935 38.0182 27.2743 38.0426 27.1704C38.067 27.0665 38.2363 26.9814 38.5334 26.9239L38.5692 26.8614C37.7861 26.6506 37.9939 26.4639 37.6864 26.2413L36.9331 26.0953C35.0587 25.7437 35.0554 25.7493 33.4414 25.7607C33.1162 25.6272 33.5296 25.6074 33.8396 25.5925L36.4357 25.4456C38.133 25.3474 39.8797 25.28 41.7758 25.2441C43.6718 25.2082 45.7857 25.0845 47.7456 24.9958C47.8447 24.9889 47.9205 24.9751 47.9667 24.9556C48.0128 24.9361 48.028 24.9114 48.0109 24.8837C47.9331 24.8536 47.8311 24.8246 47.7127 24.7988C47.5942 24.7729 47.4622 24.7509 47.3264 24.7344C46.7029 24.6539 46.063 24.6019 45.3985 24.5344L44.1596 24.4173L43.7787 24.2644C43.5307 24.1714 43.3613 24.0581 43.0314 23.9911C42.7595 23.9412 42.4644 23.9032 42.1766 23.8811C41.8889 23.859 41.6192 23.8536 41.3957 23.8655C40.7757 23.8953 40.2149 23.9388 39.6229 23.9783C39.0308 24.0178 38.7046 24.0611 38.1912 24.0802C37.1482 24.0882 36.1403 24.1108 35.1717 24.1481C34.3558 24.2376 33.6011 24.344 32.9124 24.4665C32.4828 24.5147 32.0811 24.5727 31.3477 24.5086C30.9997 24.4507 30.6997 24.3749 30.5007 24.2945C30.3016 24.2141 30.2165 24.1344 30.2604 24.0694C30.2998 24.0185 30.4112 23.9783 30.5842 23.9526C30.7572 23.9269 30.986 23.9166 31.249 23.9225C31.9852 23.9139 32.6661 23.883 33.2778 23.8305C34.1293 23.7352 35.1657 23.6948 36.3267 23.7116C36.7204 23.7258 36.9843 23.6745 37.3287 23.6579C37.6731 23.6413 37.9649 23.5997 38.3489 23.631C39.5416 23.7117 40.1137 23.5903 40.8286 23.5118C41.0706 23.4769 41.2206 23.4203 41.262 23.3481C41.3035 23.276 41.2348 23.1911 41.0635 23.1029C40.7337 22.9273 40.3303 22.7505 39.8595 22.5755C39.6172 22.4895 39.3067 22.4077 38.9525 22.3366C38.5982 22.2655 38.2097 22.207 37.8176 22.1657C37.583 22.0581 37.4579 21.9524 37.4536 21.8581C37.4492 21.7638 37.5659 21.684 37.793 21.6258C38.3715 21.4931 38.8845 21.358 40.1806 21.4337C40.7899 21.4628 41.3634 21.4688 41.8783 21.4515C43.0202 21.4283 44.3374 21.4828 45.7056 21.6099C46.0596 21.6425 46.4076 21.6648 46.7392 21.6762C49.1048 21.7557 51.3586 21.7964 53.619 21.8258C54.8165 21.8401 56.0237 21.8372 57.2738 21.8765C60.2052 21.962 62.8738 21.9221 65.7034 21.9517C67.1854 21.967 68.5119 21.9126 69.6134 21.7914C69.8279 21.7506 70.0122 21.703 70.164 21.649C69.4343 21.5062 68.6327 21.393 67.836 21.3201C67.0394 21.2472 66.2743 21.2171 65.6142 21.2327C65.2513 21.2721 64.7822 21.279 64.2593 21.2524C63.7365 21.2259 63.1804 21.167 62.653 21.0824V21.0824L64.1865 21.0363C65.2034 21.0151 66.245 21.0092 67.234 20.9782C68.8052 20.9247 70.2614 20.8382 71.8885 20.8041C73.2021 20.7727 74.3777 20.6901 75.3782 20.5591C76.1011 20.4635 76.9266 20.3961 77.8381 20.3581C78.4859 20.338 78.4859 20.338 78.9003 20.1414C78.5718 20.0136 78.1469 19.9954 77.7467 19.9925C75.3472 19.91 73.0637 19.8938 70.9426 19.9441C69.8724 19.9477 68.923 20.0008 68.1398 20.1009C67.9481 20.1433 67.4575 20.1227 67.0638 20.1085C65.8296 20.0863 64.6499 20.0912 63.5389 20.1233C62.0029 20.1771 60.2923 20.1623 58.4735 20.0796C58.1287 19.9803 58.5257 19.9888 58.5453 19.9547C59.9541 19.8925 61.335 19.8206 62.7717 19.7681C63.1645 19.7493 63.5843 19.7402 64.0265 19.741C65.6771 19.776 67.0528 19.6847 67.9607 19.4801C68.0063 19.4006 68.6034 19.4105 68.8674 19.3592C68.9972 19.3147 69.0837 19.2622 69.1243 19.2033C68.74 19.0561 68.3054 19.0549 67.9708 19.0545C66.9997 19.0699 66.0656 19.1001 65.1728 19.1448C64.3428 19.1874 63.4242 19.1981 62.4417 19.1766C61.7167 19.1563 61.0967 19.1861 60.3651 19.1771C59.9683 19.1592 59.5575 19.1308 59.1412 19.0923C59.6049 18.9905 60.2351 18.9282 60.9876 18.9098C61.5583 18.8492 62.2717 18.8315 62.3631 18.6725C62.0937 18.5584 61.7935 18.5563 61.5524 18.5679C61.0506 18.567 60.5659 18.5737 60.1008 18.588C59.1147 18.6194 58.047 18.6188 56.9203 18.5862C56.3269 18.5739 55.7639 18.5769 55.2406 18.5952C54.0548 18.6191 52.9182 18.6737 51.8325 18.6983C49.6083 18.7223 47.5796 18.8144 45.4425 18.8619C44.9669 18.8737 44.5405 18.9163 43.9136 18.8415C43.2868 18.7667 43.2589 18.757 43.1849 18.7109C43.0096 18.6338 42.9565 18.5593 43.0367 18.5027C43.1611 18.4498 43.4033 18.4206 43.7203 18.4201C45.6308 18.3377 47.443 18.2211 49.1454 18.071C49.8945 18.0414 50.551 17.98 51.0918 17.8891C51.5207 17.8266 52.0294 17.7854 52.602 17.7668C53.4349 17.7221 54.3031 17.6896 55.2032 17.6694C55.6221 17.6585 55.9782 17.6251 56.2507 17.5712C56.5232 17.5174 56.7066 17.4441 56.79 17.3557L55.6868 17.0609C55.5135 17.047 55.3415 17.035 55.1717 17.0249L46.0129 17.2277L45.1059 17.2327C44.1118 17.2142 43.8689 17.1707 42.9263 16.8295C45.0783 16.7515 46.7703 16.5198 47.8335 16.1574C47.5781 16.1181 47.3163 16.0843 47.054 16.0568C45.3343 15.9692 43.7086 15.9448 42.2395 15.9846C41.3669 15.9879 40.4697 15.9758 39.5691 15.9694C39.8327 15.8021 40.8416 15.853 41.4992 15.8159C43.0705 15.7583 44.4601 15.6375 45.6234 15.4575C46.0245 15.3873 46.5263 15.3426 47.1058 15.3255C47.6856 15.32 48.1701 15.2777 48.5169 15.2024C48.8637 15.127 49.0624 15.0208 49.0956 14.8931C49.1504 14.7774 49.2682 14.67 49.4473 14.5725C49.1307 14.4336 48.6279 14.3003 48.0332 14.1977C47.4385 14.0952 46.7929 14.0304 46.2174 14.0155C44.989 13.9572 43.7149 13.8626 42.4275 13.7339C41.7862 13.669 41.1573 13.6315 40.5818 13.6238C40.0742 13.6179 39.4973 13.5709 38.9391 13.49C38.3809 13.4092 37.872 13.299 37.49 13.1761C36.9745 13.0242 36.4933 12.8706 36.0122 12.7171C35.5311 12.5635 34.9729 12.3695 34.4113 12.1812C33.916 12.1513 33.4337 12.132 32.9709 12.1234C32.6109 12.1299 32.1908 12.1091 31.7602 12.0632C31.3296 12.0174 30.9064 11.9485 30.5408 11.8648V11.8648C30.7554 11.7827 30.998 11.7103 31.2535 11.6152C30.903 11.4889 30.6488 11.3603 30.5066 11.2371C30.3643 11.1139 30.337 10.9987 30.4262 10.8985C30.4784 10.8077 30.0973 10.6548 29.9657 10.5341C29.7962 10.4301 29.7645 10.3331 29.8746 10.2558C29.9847 10.1786 30.2315 10.1248 30.5827 10.1014C31.0183 10.0581 31.3729 9.99253 31.6319 9.90745C31.7175 9.88538 31.7611 9.85508 31.7587 9.81933C31.7563 9.78358 31.708 9.74351 31.6181 9.7028C31.5282 9.66208 31.3997 9.62201 31.2443 9.58625C31.0888 9.5505 30.9115 9.5202 30.7284 9.49812C30.1676 9.4355 29.6105 9.39472 29.0893 9.37813C28.1915 9.34767 27.3319 9.32825 26.5106 9.31987C25.6024 9.30758 24.592 9.23614 23.582 9.11279C22.6778 8.99613 21.8672 8.89154 21.4253 8.66984C20.9833 8.44814 20.2763 8.45451 19.7329 8.29291C20.0384 8.148 20.5812 8.04763 21.3067 8.00193C21.7813 7.98583 22.1776 7.94275 22.47 7.87544C22.7624 7.80814 22.9446 7.71811 23.0047 7.61112L21.3548 7.16037C20.0369 6.94765 19.3075 7.1097 17.8835 7.02355L19.351 6.85915C19.3805 6.84279 19.3916 6.82355 19.3836 6.80237C19.2415 6.46687 19.0149 6.39494 17.5151 6.20753L16.6733 6.09892L15.3409 5.9697C15.1276 5.90077 14.9801 5.82896 14.9131 5.76145C14.8461 5.69393 14.8619 5.63309 14.9591 5.585C15.1544 5.50415 15.2139 5.40066 15.132 5.28405C15.0029 5.20674 14.9923 5.13557 15.1021 5.08289C15.2119 5.03021 15.4351 4.99934 15.7331 4.99566C15.9709 4.98975 15.9887 4.90056 16.1181 4.85016C16.2467 4.78066 16.4668 4.72745 16.7633 4.69414C17.0598 4.66083 17.4258 4.6482 17.8364 4.65713C19.0471 4.66527 20.1845 4.64022 21.2283 4.58244L21.0412 4.55831C22.1291 4.61096 23.1462 4.61819 24.043 4.57967C24.9417 4.53095 26.095 4.56386 27.0496 4.53454C27.8266 4.54223 28.4183 4.47417 28.699 4.34483C28.9709 4.22133 29.9585 4.25116 30.7147 4.27555C31.1627 4.29128 31.5957 4.29818 32.009 4.29617C32.5639 4.26869 33.2575 4.29576 33.9743 4.37287C34.1894 4.39656 34.4013 4.4092 34.5896 4.40955C36.412 4.44343 38.2312 4.48297 40.029 4.50146C40.444 4.49221 40.9306 4.51478 41.4316 4.56655C41.6423 4.58902 41.8472 4.59844 42.019 4.59355C44.8599 4.54534 48.0654 4.67837 50.8503 4.61077C51.1879 4.59449 51.5616 4.5914 51.9608 4.60157C52.858 4.64372 53.6371 4.6179 54.1799 4.52803C54.4728 4.48024 54.8482 4.45411 55.2823 4.45131C55.7163 4.44851 56.1995 4.4691 56.701 4.51176C57.5354 4.56842 58.3067 4.57522 58.9334 4.53144C60.1553 4.49161 61.4402 4.47599 62.7781 4.48469C63.1881 4.49226 63.5484 4.47667 63.8313 4.43913C64.1142 4.4016 64.312 4.34312 64.4094 4.26823C64.081 4.14046 63.7217 4.12461 63.3806 4.13549C62.0584 4.10517 60.7395 4.06918 59.442 4.05425C58.2807 4.01404 57.1663 4.00102 56.1154 4.01538C55.5935 4.03221 54.9424 3.99205 54.3041 3.90367C53.5219 3.79175 52.7161 3.73575 52.0498 3.74699C51.5559 3.74946 51.0344 3.73939 50.4931 3.71691C50.1467 3.69009 49.7916 3.64427 49.4643 3.58416C49.3344 3.55806 49.193 3.53609 49.0492 3.51964C48.9054 3.5032 48.7624 3.49266 48.6292 3.48867C48.4959 3.48468 48.3754 3.48733 48.2754 3.49648C48.1755 3.50563 48.0983 3.52106 48.0486 3.54178C47.5472 3.71496 46.4266 3.62526 45.467 3.60513C44.0291 3.30983 42.9586 3.48276 41.6147 3.31546C41.5084 3.30436 41.4036 3.29759 41.3069 3.29559C41.2102 3.2936 41.1235 3.29641 41.052 3.30385C38.4508 3.40127 35.4193 3.31509 32.6883 3.34697C32.3871 3.35173 32.0376 3.3341 31.6794 3.29608C29.3385 3.04452 27.0876 2.97158 25.3669 3.09153C25.1575 3.10227 24.9194 3.10251 24.6632 3.09223C23.4869 2.99201 22.362 2.95143 21.3823 2.97386C19.8469 2.96483 18.3707 2.96954 16.8107 2.94513C15.7354 2.91151 14.792 2.94542 14.075 3.04349C14.0521 3.08323 13.5746 3.03992 13.2088 3.03542C12.9986 2.9351 12.8163 2.84449 12.5995 2.75553C12.4057 2.64554 12.1153 2.53414 11.7482 2.4289C11.3811 2.32365 10.9458 2.22703 10.4717 2.14555C9.66107 2.04095 9.58013 1.89023 10.1475 1.83535C11.6099 1.65339 13.4487 1.58011 15.5286 1.62088C17.2673 1.62565 19.0373 1.63445 20.8006 1.6546C21.8292 1.67142 22.9134 1.70763 23.914 1.71475C24.2516 1.7286 24.5985 1.74888 24.9509 1.77535C25.3833 1.81365 25.8032 1.8347 26.1879 1.83736C27.4232 1.80664 28.8017 1.83576 30.2577 1.92334C30.7911 1.94264 31.3032 1.94946 31.7865 1.94371C32.9299 1.92142 34.1695 1.93982 35.4724 1.99844C36.2822 2.03157 37.0674 2.04924 37.8199 2.05126C38.0856 2.05505 38.302 2.02808 38.558 2.04891C40.8108 2.26639 42.4063 2.1124 44.434 2.19714C45.4195 2.22118 46.361 2.22215 47.2454 2.20004C48.9713 2.20281 50.7453 2.22812 52.5602 2.27587C54.9602 2.35376 57.1843 2.32967 59.4759 2.36308C59.9283 2.37007 60.3652 2.36937 60.7833 2.36098C62.817 2.30486 65.0259 2.3193 67.356 2.40395C67.8851 2.41637 68.3603 2.40226 68.752 2.36254C69.1436 2.32281 69.4432 2.25831 69.6319 2.17308C69.7118 2.11453 69.6602 2.03834 69.4869 1.9592C69.1994 1.85807 68.8747 1.75893 68.5182 1.66344L55.5473 1.33168C55.0026 1.31449 54.4713 1.305 53.9562 1.30326C52.4413 1.29903 50.8798 1.27269 49.2795 1.22438C47.6981 1.17892 46.1874 1.18526 44.6553 1.17056C44.2041 1.1657 43.7408 1.1548 43.2676 1.13789C40.0688 1.00462 36.9495 0.922094 33.9319 0.890916C32.6623 0.885683 31.2908 0.824611 29.9965 0.803999C28.7023 0.783387 26.9324 0.774595 25.397 0.765572L20.6435 0.762164C19.7086 0.757412 18.7982 0.768035 17.8911 0.772984C16.7908 0.356556 16.4116 0.258832 14.9429 0.0754405C14.4405 0.00782985 13.9294 -0.0327212 13.4696 -0.0414634C12.0115 -0.010028 10.1821 -0.148474 8.79941 -0.131706C7.96508 -0.141434 7.25707 -0.0959708 6.74785 3.07145e-05C6.30582 0.0753328 5.80037 0.134768 5.23932 0.177438C3.70286 -0.179378 3.56764 -0.410292 4.72376 -0.498989C5.03698 -0.519566 5.4684 -0.512693 5.69461 -0.556695C5.82441 -0.5835 6.00171 -0.598731 6.21238 -0.601191C6.42305 -0.60365 6.66126 -0.593275 6.90833 -0.570869C7.68812 -0.511971 8.41904 -0.497592 9.02776 -0.52918C9.60065 -0.571209 10.3028 -0.568835 11.0666 -0.52228C11.6278 -0.44987 12.1213 -0.550879 12.6067 -0.579733C13.0921 -0.608587 13.4905 -0.660873 14.2486 -0.581361C14.3874 -0.565541 14.5252 -0.555991 14.6515 -0.553445C14.7777 -0.5509 14.8891 -0.555425 14.9769 -0.566674C15.7912 -0.616632 16.7629 -0.610367 17.8131 -0.548393C19.4237 -0.486852 20.9349 -0.483151 22.2943 -0.537415C23.1081 -0.585256 23.802 -0.670816 24.3488 -0.790758C24.4979 -0.830906 24.7192 -0.854854 24.9916 -0.860305C26.3592 -0.833856 27.8442 -0.73783 29.3507 -0.578426C29.9183 -0.514589 30.4851 -0.463981 31.0391 -0.42768C32.1777 -0.347127 33.2789 -0.301543 34.3103 -0.292279C35.8089 -0.289527 37.3691 -0.257456 38.9772 -0.196355C39.9696 -0.162241 40.9259 -0.149083 41.8346 -0.157025C42.7687 -0.160284 43.766 -0.13403 44.8039 -0.0788755C45.836 -0.0337515 46.7457 -0.0583058 47.4232 -0.149566C47.6463 -0.19888 47.826 -0.25752 47.959 -0.324394C46.4479 -0.543867 44.885 -0.656171 43.5849 -0.638691C43.0911 -0.653607 42.6811 -0.639421 42.1609 -0.724842L42.1446 -0.696452C42.041 -0.67812 41.8848 -0.673921 41.7057 -0.684658C41.5266 -0.695395 41.3371 -0.720313 41.1734 -0.75467V-0.75467C41.2353 -0.862555 41.2941 -0.964762 41.3365 -1.03858C42.327 -1.0246 43.2887 -1.02473 44.2169 -1.03898C44.9992 -1.06002 46.0611 -0.868127 46.7383 -0.939327C48.059 -0.84821 48.9001 -0.971457 50.0845 -0.934523C51.2689 -0.897589 52.5733 -0.778079 53.7577 -0.741145C54.7912 -0.720507 55.7948 -0.715274 56.7627 -0.725467C57.0969 -0.74076 57.482 -0.736728 57.8946 -0.713615C58.4745 -0.670319 59.014 -0.662639 59.451 -0.69146C59.8881 -0.720281 60.2052 -0.784442 60.3659 -0.876579C60.2147 -0.963175 60.011 -1.07484 59.7761 -1.19054C60.2086 -1.28501 60.8653 -1.32433 61.6489 -1.30266L62.7561 -1.30617C63.0495 -1.30339 63.2738 -1.32882 63.3827 -1.37722C63.4915 -1.42561 63.4766 -1.49326 63.3409 -1.56618C61.2418 -1.9346 61.1645 -1.97506 59.6234 -1.74087L57.5776 -1.85235L57.612 -1.854ZM85.2837 -0.820909L85.1279 -0.841018L85.2837 -0.820909ZM340.208 38.4073L340.172 38.4697L340.211 38.4016L340.554 38.4458L340.577 38.4061L340.208 38.4073ZM290.433 10.9678C289.948 10.8991 289.459 10.836 288.968 10.7787C288.839 10.7698 288.719 10.7677 288.617 10.7726C288.515 10.7775 288.434 10.7892 288.382 10.8068C288.343 10.875 288.617 10.9225 288.867 10.9547C289.181 10.998 289.502 11.0256 289.797 11.0348C290.092 11.0439 290.35 11.0341 290.545 11.0066L290.827 10.982L290.433 10.9678ZM40.7032 27.3441C41.0224 27.3559 41.3251 27.358 41.6038 27.3505C42.8404 27.2966 44.0243 27.2176 45.2921 27.1677C46.8918 27.0395 48.7299 26.9884 50.7374 27.0164C51.5217 27.0299 52.1844 26.9885 52.648 26.897C52.9256 26.8479 53.2838 26.8194 53.7008 26.8132L59.0083 26.6685C59.3363 26.6378 59.62 26.5945 59.8526 26.5396C59.3849 26.4793 59.0732 26.4391 58.8861 26.4149C58.4979 26.4078 58.1642 26.4258 57.9185 26.4669C57.6545 26.5369 57.2084 26.5643 56.6688 26.5436C56.124 26.5264 55.5928 26.5169 55.0777 26.5152C54.105 26.5177 53.1257 26.5317 52.1498 26.5399C51.7699 26.7349 50.6493 26.6452 49.6896 26.625L48.9482 26.6331C46.5247 26.732 44.2097 26.8691 42.0144 27.0437C41.5901 27.0731 41.2246 27.1205 40.9291 27.1842C40.8177 27.234 40.782 27.2962 40.8247 27.3659L40.6688 27.3458L40.7032 27.3441ZM148.903 46.1227C149.491 46.1366 150.103 46.1645 150.731 46.206C151.214 46.2483 151.686 46.2741 152.127 46.2825C154.598 46.3287 157.174 46.4322 159.819 46.5919C160.165 46.616 160.497 46.628 160.803 46.6274L162.968 46.5896C163.651 46.5678 163.664 46.5451 163.167 46.2432C162.755 46.1843 162.338 46.1306 161.92 46.0823C161.671 46.0501 161.266 45.9978 161.171 46.0466C160.592 46.1793 159.537 46.092 158.649 46.0628C156.081 45.9875 153.431 45.8775 150.838 45.7868C150.289 45.7647 149.758 45.7533 149.25 45.7527C148.934 45.7479 148.646 45.7561 148.398 45.777C148.326 45.7791 148.265 45.7854 148.22 45.7954C148.176 45.8054 148.148 45.8189 148.138 45.835C148.129 45.8511 148.139 45.8695 148.167 45.8888C148.195 45.9082 148.24 45.9282 148.3 45.9474C148.513 46.0147 148.758 46.0792 149.028 46.1388L148.903 46.1227ZM167.764 2.39239L170.295 2.35908C170.599 2.35554 170.856 2.31556 171.181 2.33308C172.914 2.38926 174.518 2.37562 175.926 2.29273C176.406 2.25881 176.966 2.25247 177.578 2.27407C179.45 2.33812 181.216 2.34238 182.828 2.28672C183.87 2.27624 184.846 2.23862 185.74 2.17441C185.808 2.15937 185.851 2.1389 185.865 2.1144C185.88 2.08991 185.864 2.06195 185.821 2.03245C185.81 2.01383 185.779 1.99378 185.732 1.97368C185.684 1.95359 185.62 1.93391 185.544 1.91604C185.468 1.89816 185.383 1.88249 185.293 1.87012C185.204 1.85774 185.112 1.84894 185.025 1.84433C183.896 1.75517 182.824 1.72346 181.897 1.75177C181.037 1.78588 180.111 1.79521 179.135 1.77962C178.2 1.77487 177.565 1.88818 176.41 1.80015C175.921 1.77105 175.49 1.78006 175.19 1.82567C174.585 1.90116 173.74 1.90458 172.806 1.83532C172.248 1.80019 171.714 1.78484 171.225 1.78986C170.039 1.81373 168.906 1.86268 167.807 1.90997C167.461 1.92082 167.09 1.92201 166.7 1.9135L161.198 1.81354C159.876 1.78323 158.557 1.74724 157.26 1.7323C156.198 1.70156 155.211 1.70992 154.332 1.75708C153.394 1.80664 152.372 1.82614 151.284 1.81522C149.595 1.84121 147.915 1.85016 146.076 1.84468C144.904 1.84583 143.703 1.83729 142.478 1.81337C141.858 1.7835 141.331 1.80684 141 1.87888C140.798 1.93826 140.324 1.88927 139.93 1.87507C137.83 1.73979 135.861 1.70633 134.16 1.777C133.942 1.78857 133.704 1.79261 133.449 1.78904C131.811 1.78498 130.113 1.7672 128.54 1.76551C128.126 1.77073 127.736 1.78577 127.375 1.81044C127.414 1.85129 127.524 1.89564 127.683 1.93427C127.841 1.97291 128.036 2.00288 128.227 2.01796C129.715 2.13341 131.151 2.19503 132.476 2.20022C134.682 2.18781 136.992 2.22269 139.382 2.30447C141.237 2.3864 142.929 2.37115 144.331 2.25987C145.427 2.17688 146.853 2.20987 148.363 2.35317C149.009 2.42154 149.637 2.44923 150.159 2.43246C150.662 2.41029 151.24 2.41634 151.857 2.45025C153.159 2.51485 154.411 2.54544 155.589 2.54142C156.74 2.51921 157.815 2.45653 158.997 2.43834C160.18 2.42015 161.981 2.43295 163.439 2.40152C164.897 2.37008 166.339 2.36704 167.764 2.39239ZM62.8997 -1.03149C63.0331 -0.855695 63.5059 -0.745901 64.0146 -0.698571C65.7681 -0.488899 67.5019 -0.398727 68.9247 -0.443189C69.6933 -0.506375 70.7179 -0.480785 71.7971 -0.371442C73.0537 -0.25765 74.2283 -0.23785 75.1139 -0.315533C75.3309 -0.329046 75.497 -0.357896 75.5975 -0.399512C75.6171 -0.433581 75.653 -0.496039 75.6595 -0.507395C75.5665 -0.536302 75.4524 -0.563111 75.3261 -0.585757C75.1997 -0.608404 75.0645 -0.62628 74.9308 -0.638007L69.122 -0.844676L68.1097 -0.889899C66.2608 -1.0076 64.4989 -1.05548 62.8997 -1.03149V-1.03149ZM74.3235 1.75986C75.2299 2.04757 75.2331 2.04188 75.6975 2.1079C77.938 2.38243 80.1772 2.53161 82.1485 2.5377C82.5866 2.53729 82.9585 2.50996 83.2325 2.458C83.3735 2.45106 83.4633 2.42866 83.4822 2.39568C83.5012 2.36271 83.4478 2.32183 83.3337 2.28198L82.6129 2.0792C81.3037 1.99046 80.0132 1.9197 78.7493 1.86736C77.2778 1.80558 75.9737 1.802 74.4482 1.77594L74.3235 1.75986ZM148.796 44.8524C149.64 45.248 149.643 45.2424 151.058 45.3456C152.043 45.4187 152.999 45.4619 153.897 45.4741C154.995 45.4876 156.12 45.5108 157.214 45.53C157.481 45.5428 157.708 45.5326 157.85 45.5013C157.991 45.47 158.038 45.4199 157.981 45.3606C157.838 45.2962 157.613 45.2339 157.344 45.1836C157.075 45.1334 156.777 45.0983 156.499 45.084L155.902 45.0741C155.177 45.0537 154.424 45.0236 153.724 45.0186C153.269 45.0346 152.743 45.0214 152.185 44.9802C151.628 44.939 151.055 44.8708 150.511 44.781L148.796 44.8524ZM78.8368 -0.499987C79.0623 -0.431401 79.3174 -0.365673 79.5952 -0.304553C80.671 -0.134851 81.8097 -0.03796 82.7881 -0.0328748C83.2507 -0.0219815 83.6738 -0.0588804 84.1447 -0.00421718C84.9894 0.0690351 85.808 0.10841 86.5564 0.111774C86.5564 0.111774 86.7662 0.096158 86.8351 0.0928472L86.9786 -0.156992C86.6244 -0.215242 86.255 -0.262906 85.8874 -0.297791C84.6537 -0.365483 83.4413 -0.412116 82.2323 -0.464429C81.0232 -0.516743 80.6016 -0.540644 79.8109 -0.563375C79.4582 -0.551637 79.1319 -0.530404 78.8368 -0.499987ZM52.089 30.5514L53.7031 31.0646C54.2255 31.1095 54.7136 31.1181 55.0931 31.0889C55.4726 31.0597 55.7226 30.9943 55.8053 30.9028C55.9383 30.86 55.9517 30.7966 55.8426 30.7256C55.7335 30.6547 55.5104 30.5818 55.2202 30.5223C54.9408 30.4519 54.6219 30.3886 54.2831 30.3365C53.9444 30.2844 53.593 30.2446 53.2509 30.2195L52.089 30.5514ZM65.5344 28.0168C64.4784 27.929 63.4684 27.8926 62.5815 27.9103C62.0227 27.9605 61.2656 27.9435 60.4655 27.8629C59.0103 27.7023 57.6075 27.6569 56.553 27.7362C56.553 27.7362 56.5137 27.8044 56.335 27.824C56.1563 27.8436 56.8651 27.8924 57.021 27.9125C58.1644 27.9625 59.3144 28.001 60.3084 28.0195C60.9256 28.0193 61.5784 28.0361 62.2556 28.0695C63.1873 28.1209 64.071 28.1381 64.872 28.1204C64.872 28.1204 65.182 28.1055 65.5311 28.0225L65.5344 28.0168ZM178.338 1.47558C177.834 1.37873 177.287 1.29989 176.738 1.24497C176.19 1.19006 175.654 1.16049 175.171 1.15848C174.801 1.15309 174.502 1.17825 174.321 1.22996C174.139 1.28168 174.086 1.357 174.17 1.44402C174.544 1.4923 175.043 1.55666 175.324 1.59286C176.296 1.59028 177.126 1.54487 178.338 1.47558ZM272.75 9.68646C272.345 9.6085 271.9 9.54877 271.463 9.51408C271.027 9.47938 270.619 9.47114 270.284 9.49028C270.112 9.49856 270.228 9.58681 270.199 9.63791C270.18 9.64949 270.18 9.6639 270.2 9.67966C270.219 9.69541 270.257 9.71192 270.31 9.72745C270.363 9.74299 270.428 9.75697 270.499 9.76794C270.571 9.77891 270.645 9.78647 270.715 9.78981C271.154 9.82365 271.568 9.83399 271.921 9.81992C272.274 9.80585 272.554 9.76781 272.737 9.70918L272.75 9.68646ZM279.075 10.8014C279.013 10.7556 278.879 10.7078 278.7 10.6667C278.521 10.6256 278.307 10.5941 278.098 10.5778C277.73 10.5753 277.395 10.5877 277.106 10.6145C276.793 10.635 277.018 10.7678 277.442 10.8468C277.621 10.8786 277.813 10.9034 278.001 10.9193C278.19 10.9352 278.37 10.9417 278.528 10.9384C278.686 10.9351 278.817 10.922 278.911 10.9002C279.005 10.8784 279.059 10.8485 279.069 10.8128L279.075 10.8014ZM95.2593 0.00265013C94.3156 -0.161803 93.5891 -0.121357 92.7901 -0.187857C91.9911 -0.254357 91.7942 -0.261462 91.9011 -0.156176C92.0081 -0.0508892 92.5559 -0.0716947 92.8989 -0.0274443C93.3623 0.0312807 93.8284 0.0651932 94.2453 0.0705088C94.6622 0.0758243 95.0133 0.0523294 95.2593 0.00265013V0.00265013ZM291.911 27.8639C291.412 27.8267 290.922 27.8003 290.45 27.7851C290.388 27.8002 290.349 27.8201 290.335 27.8435C290.322 27.8669 290.334 27.8933 290.371 27.9213C290.371 27.9213 290.692 28.0053 290.879 28.0295C291.568 28.1123 291.602 27.9947 291.911 27.8639V27.8639ZM362.556 43.1692C362.894 43.2799 363.051 43.3552 363.322 43.4084C363.447 43.4269 363.575 43.4404 363.699 43.4479C363.822 43.4553 363.937 43.4566 364.034 43.4515C364.153 43.4198 364.181 43.3711 364.113 43.3152C364.113 43.3152 363.768 43.2158 363.637 43.2111C363.262 43.1874 362.899 43.1733 362.556 43.1692V43.1692ZM79.1946 -0.947852C78.4775 -1.04038 77.7915 -1.12888 77.2948 -1.02219C78.4336 -0.905762 78.4336 -0.905755 79.1946 -0.947852ZM90.8096 0.111624C90.0856 -0.0854739 89.6606 -0.103705 89.313 -0.0814729C89.2391 -0.0758599 89.1902 -0.0632386 89.1737 -0.0455255C89.1572 -0.0278124 89.1739 -0.00596927 89.2214 0.0167019C89.2689 0.039373 89.3446 0.0616347 89.437 0.0801228C89.5294 0.0986108 89.6335 0.112319 89.7336 0.11917C90.1112 0.125186 90.4714 0.122662 90.8096 0.111624V0.111624ZM128.082 0.230486C128.098 0.202095 128.118 0.168027 127.931 0.14389C127.882 0.131681 127.825 0.121168 127.764 0.1134C127.704 0.105633 127.643 0.100891 127.588 0.0996457C127.588 0.0996457 127.568 0.133716 127.555 0.156429L128.082 0.230486ZM153.92 47.4165L153.503 47.4421L153.69 47.4662L154.184 47.4811L153.92 47.4165ZM300.617 10.3789C300.461 10.3588 300.306 10.3386 300.283 10.3784C300.25 10.3845 300.229 10.3934 300.223 10.4042C300.217 10.4151 300.225 10.4277 300.247 10.4408C300.247 10.4408 300.465 10.469 300.559 10.4811L300.617 10.3789ZM276.335 10.6736C276.233 10.6712 276.14 10.6738 276.063 10.6812C276.063 10.6812 276.044 10.7152 276.044 10.7152L276.355 10.7555L276.335 10.6736ZM64.7199 18.5923C64.5995 18.5715 64.4718 18.555 64.3458 18.544L64.1898 18.5239C64.1898 18.5239 64.3573 18.5821 64.4508 18.5942C64.5444 18.6063 64.6198 18.5916 64.7199 18.5923Z" fill="#DF6951"/>
</g>
</svg>
