<svg width="115" height="35" viewBox="0 0 115 35" fill="none" xmlns="http://www.w3.org/2000/svg">
<path d="M0.77175 23.8372L0.773871 21.6294L6.81779 20.5079L6.81486 23.5612C6.84355 25.2209 7.25126 26.4739 8.03799 27.3202C8.85503 28.1352 9.92993 28.5434 11.2627 28.5446C12.5652 28.5459 13.5954 28.1085 14.3535 27.2323C15.1419 26.3563 15.5368 25.1823 15.5382 23.7105L15.5603 0.69343L21.8303 0.699454L21.8082 23.7165C21.8053 26.7854 20.8184 29.3837 18.8475 31.5113C16.8766 33.6388 14.3615 34.7011 11.3022 34.6982C8.12177 34.6952 5.56322 33.7062 3.62656 31.7315C1.72023 29.7255 0.768621 27.094 0.77175 23.8372Z" fill="black"/>
<path d="M23.2452 27.7106C23.2471 25.7377 23.8695 24.1569 25.1126 22.9681C26.3556 21.7793 27.9617 21.0292 29.9308 20.718L35.4293 19.8777C36.5501 19.7222 37.111 19.1747 37.1119 18.2353C37.1128 17.3584 36.7803 16.6379 36.1144 16.0735C35.4789 15.5092 34.5553 15.2265 33.3437 15.2254C32.0715 15.2241 31.0565 15.5833 30.2985 16.3028C29.5709 17.0224 29.1611 17.9145 29.0692 18.9791L23.709 17.7996C23.923 15.7956 24.8788 14.0272 26.5765 12.4944C28.2742 10.9615 30.5164 10.1965 33.3031 10.1991C36.635 10.2023 39.0877 11.0346 40.6612 12.6958C42.2347 14.3257 43.0202 16.4246 43.0177 18.9925L43.0068 30.3601C43.0055 31.738 43.0952 32.9594 43.2759 34.0243L37.7328 34.019C37.5821 33.3299 37.5072 32.406 37.5083 31.2473C36.0825 33.532 33.8854 34.6729 30.917 34.6701C28.6149 34.6679 26.7528 33.9771 25.3305 32.5979C23.9385 31.2186 23.2434 29.5896 23.2452 27.7106ZM32.1936 30.0209C33.6173 30.0223 34.7838 29.6163 35.6933 28.803C36.6331 27.9584 37.1039 26.5809 37.1057 24.6707L37.1067 23.6372L32.0627 24.4309C30.2147 24.711 29.29 25.6809 29.2884 27.3406C29.2876 28.0922 29.5445 28.7344 30.0589 29.2673C30.5734 29.7688 31.2849 30.02 32.1936 30.0209Z" fill="black"/>
<path d="M66.7125 0.0379748L66.6838 29.8662C66.6824 31.4006 66.7416 32.7942 66.8616 34.047L61.0913 34.0414C60.9406 33.2584 60.8658 32.3658 60.8667 31.3637C60.3509 32.334 59.5323 33.1161 58.411 33.7101C57.32 34.304 56.0475 34.6003 54.5936 34.5989C51.4132 34.5958 48.7942 33.4503 46.7367 31.1623C44.7095 28.8429 43.6976 25.9296 43.7009 22.4223C43.7042 19.0088 44.7065 16.1444 46.7079 13.829C48.7395 11.5136 51.3153 10.3574 54.4352 10.3604C57.6459 10.3634 59.7501 11.3206 60.7478 13.2318L60.7605 0.0322561L66.7125 0.0379748ZM49.7892 22.4281C49.7872 24.4636 50.3006 26.0769 51.3293 27.2679C52.3581 28.4275 53.6903 29.0082 55.3259 29.0097C56.9313 29.0113 58.2495 28.4175 59.2805 27.2285C60.3115 26.0395 60.828 24.4273 60.8299 22.3917C60.8318 20.3875 60.3184 18.8213 59.2896 17.6929C58.2609 16.5332 56.9438 15.9526 55.3385 15.9511C53.7331 15.9495 52.3998 16.5276 51.3385 17.6853C50.3076 18.843 49.7911 20.4239 49.7892 22.4281Z" fill="black"/>
<path d="M75.6043 27.3382C76.7239 28.4979 78.0712 29.0786 79.6463 29.0801C81.2214 29.0816 82.5547 28.5035 83.6463 27.3459C84.7681 26.1883 85.33 24.5761 85.332 22.5092C85.334 20.4424 84.7752 18.8291 83.6555 17.6693C82.5662 16.5096 81.234 15.929 79.659 15.9275C78.0839 15.926 76.7354 16.504 75.6136 17.6616C74.522 18.8193 73.9753 20.4315 73.9733 22.4983C73.9713 24.5652 74.515 26.1784 75.6043 27.3382ZM71.2556 13.7116C73.4993 11.3964 76.3022 10.2405 79.6644 10.2437C83.0266 10.2469 85.8122 11.4083 88.0211 13.7278C90.2603 16.0473 91.3782 18.9764 91.3748 22.515C91.3714 26.0537 90.2479 28.9807 88.0042 31.2959C85.7908 33.6111 83.003 34.7671 79.6409 34.7639C76.2787 34.7606 73.478 33.5993 71.2387 31.2798C69.0298 28.9603 67.927 26.0312 67.9304 22.4925C67.9338 18.9538 69.0422 16.0269 71.2556 13.7116Z" fill="black"/>
<path d="M98.5027 27.3602C99.6224 28.5199 100.97 29.1006 102.545 29.1021C104.12 29.1036 105.453 28.5255 106.545 27.3679C107.667 26.2103 108.228 24.5981 108.23 22.5312C108.232 20.4644 107.674 18.8511 106.554 17.6913C105.465 16.5316 104.132 15.951 102.557 15.9495C100.982 15.948 99.6339 16.526 98.512 17.6836C97.4205 18.8413 96.8737 20.4535 96.8717 22.5203C96.8698 24.5872 97.4134 26.2004 98.5027 27.3602ZM94.1541 13.7337C96.3978 11.4184 99.2007 10.2625 102.563 10.2657C105.925 10.2689 108.711 11.4303 110.92 13.7498C113.159 16.0693 114.277 18.9984 114.273 22.537C114.27 26.0757 113.146 29.0027 110.903 31.3179C108.689 33.6331 105.901 34.7891 102.539 34.7859C99.1771 34.7826 96.3764 33.6213 94.1372 31.3018C91.9283 28.9823 90.8255 26.0532 90.8289 22.5145C90.8323 18.9758 91.9407 16.0489 94.1541 13.7337Z" fill="black"/>
</svg>
